#!OML:ASF I:\Actors\actors\Patient Classification 2\Patient 1\Session 1\actor1.ASF
:FULLY-SPECIFIED
:DEGREES
132
root -0.569546 18.7118 5.94665 4.8605 -3.58077 -0.504604
lowerback 1.1616 1.08389 -1.66069
upperback -3.10299 1.40154 0.17211
thorax -3.88853 0.75181 1.04342
lowerneck -11.186 -1.88858 -1.83268
upperneck 23.2844 -2.78779 2.13175
head 9.20676 -1.23931 0.727545
rclavicle 2.41306e-014 1.6201e-014
rhumerus -49.2867 -0.663563 -87.3959
rradius 43.0458
rwrist 19.7408
rhand -7.10095 -36.7128
rfingers 7.12502
rthumb 18.7737 -65.8269
lclavicle 2.41306e-014 1.6201e-014
lhumerus -40.6802 1.47992 89.2028
lradius 34.8945
lwrist -10.1507
lhand -4.60514 -26.5718
lfingers 7.12502
lthumb 21.1728 2.29198
rfemur 2.89085 5.72765 13.3215
rtibia -1.90833e-014
rfoot -16.8602 -11.6422
rtoes -7.54181
lfemur -5.70131 -6.91461 -13.9636
ltibia 20.1158
lfoot -23.2737 15.1649
ltoes -55.5401
133
root -0.56912 18.7119 5.94801 4.90446 -3.64272 -0.448623
lowerback 1.18058 1.09769 -1.71848
upperback -3.11325 1.41726 0.158488
thorax -3.91165 0.761411 1.06048
lowerneck -11.2608 -1.88513 -1.85455
upperneck 23.3386 -2.79241 2.18828
head 9.24105 -1.23644 0.749456
rclavicle -1.93411e-014 1.02374e-014
rhumerus -49.2567 -0.578756 -87.4247
rradius 43.052
rwrist 19.6787
rhand -7.22688 -36.6096
rfingers 7.12502
rthumb 18.6526 -65.7353
lclavicle -1.93411e-014 1.02374e-014
lhumerus -40.6157 1.48017 89.2106
lradius 34.8484
lwrist -10.1113
lhand -4.57956 -26.546
lfingers 7.12502
lthumb 21.1973 2.31507
rfemur 2.82531 5.77842 13.2432
rtibia 1.74931e-014
rfoot -16.8412 -11.6484
rtoes -7.41085
lfemur -5.73955 -6.92216 -14.0367
ltibia 20.1177
lfoot -23.3047 15.2142
ltoes -55.5525
134
root -0.568974 18.7127 5.95014 4.92545 -3.64029 -0.422893
lowerback 1.23589 1.10358 -1.74203
upperback -3.13904 1.4232 0.159452
thorax -3.97064 0.765719 1.07293
lowerneck -11.3064 -1.89567 -1.89245
upperneck 23.3898 -2.80807 2.2225
head 9.269 -1.24273 0.765461
rclavicle 7.2075e-015 -6.65929e-015
rhumerus -49.2512 -0.5464 -87.4101
rradius 43.0331
rwrist 19.6457
rhand -7.22603 -36.5259
rfingers 7.12502
rthumb 18.6534 -65.6515
lclavicle 7.2075e-015 -6.65929e-015
lhumerus -40.6254 1.43116 89.2666
lradius 34.8592
lwrist -10.0467
lhand -4.57616 -26.4922
lfingers 7.12502
lthumb 21.2006 2.36848
rfemur 2.80855 5.77102 13.2101
rtibia 9.54166e-015
rfoot -16.8378 -11.639
rtoes -7.3117
lfemur -5.75382 -6.89015 -14.0647
ltibia 20.119
lfoot -23.2661 15.1931
ltoes -55.5706
135
root -0.569302 18.7131 5.95198 4.95154 -3.64339 -0.437943
lowerback 1.24515 1.11868 -1.7296
upperback -3.13681 1.44376 0.162895
thorax -3.974 0.775647 1.06835
lowerneck -11.329 -1.92301 -1.93164
upperneck 23.3798 -2.85106 2.27818
head 9.27224 -1.26007 0.786087
rclavicle -6.49622e-015 2.26615e-014
rhumerus -49.2191 -0.587698 -87.3812
rradius 43.0171
rwrist 19.6899
rhand -7.1682 -36.4395
rfingers 7.12502
rthumb 18.7091 -65.5598
lclavicle -6.49622e-015 2.26615e-014
lhumerus -40.6047 1.35679 89.3141
lradius 34.8797
lwrist -9.99042
lhand -4.6064 -26.4843
lfingers 7.12502
lthumb 21.1715 2.37961
rfemur 2.78176 5.77251 13.2262
rtibia -1.11319e-014
rfoot -16.83 -11.6554
rtoes -7.53184
lfemur -5.78067 -6.77886 -14.038
ltibia 20.1213
lfoot -23.1861 15.1321
ltoes -55.5831
136
root -0.569601 18.7122 5.95472 4.95802 -3.64895 -0.451786
lowerback 1.22546 1.12654 -1.71225
upperback -3.09495 1.4556 0.165933
thorax -3.91936 0.780377 1.06214
lowerneck -11.3729 -1.93509 -1.98978
upperneck 23.3418 -2.87651 2.37083
head 9.27025 -1.26684 0.824381
rclavicle -4.09217e-015 -1.3418e-014
rhumerus -49.1536 -0.615721 -87.3653
rradius 43.0173
rwrist 19.7691
rhand -7.10059 -36.4027
rfingers 7.12502
rthumb 18.7741 -65.5168
lclavicle -4.09217e-015 -1.3418e-014
lhumerus -40.5373 1.33854 89.3267
lradius 34.8834
lwrist -9.99
lhand -4.64067 -26.4842
lfingers 7.12502
lthumb 21.1386 2.38342
rfemur 2.77922 5.77868 13.2452
rtibia 7.95139e-015
rfoot -16.8284 -11.6841
rtoes -7.91695
lfemur -5.78045 -6.73166 -14.0167
ltibia 20.121
lfoot -23.1636 15.1032
ltoes -55.5474
137
root -0.569243 18.7111 5.95792 4.93163 -3.66943 -0.438315
lowerback 1.23952 1.13229 -1.71641
upperback -3.05186 1.46315 0.164468
thorax -3.88291 0.783666 1.06286
lowerneck -11.4178 -1.93317 -1.97864
upperneck 23.3146 -2.87032 2.35278
head 9.2686 -1.26464 0.816582
rclavicle 5.47745e-015 5.36719e-015
rhumerus -49.0798 -0.634885 -87.3513
rradius 42.9881
rwrist 19.873
rhand -7.06593 -36.3454
rfingers 7.12502
rthumb 18.8074 -65.4561
lclavicle 5.47745e-015 5.36719e-015
lhumerus -40.5027 1.32458 89.341
lradius 34.902
lwrist -9.98267
lhand -4.63737 -26.4249
lfingers 7.12502
lthumb 21.1418 2.44237
rfemur 2.81437 5.80069 13.2291
rtibia 9.54166e-015
rfoot -16.8428 -11.6708
rtoes -7.96883
lfemur -5.72375 -6.79241 -14.0447
ltibia 20.1125
lfoot -23.2237 15.1563
ltoes -55.526
